<svg xmlns="http://www.w3.org/2000/svg" viewBox="0 0 48 48"><title>18-calculator</title><g id="_18-calculator" data-name="18-calculator"><path d="M25,48H5a5.006,5.006,0,0,1-5-5V21a5.006,5.006,0,0,1,5-5H25a5.006,5.006,0,0,1,5,5v3H28V21a3,3,0,0,0-3-3H5a3,3,0,0,0-3,3V43a3,3,0,0,0,3,3H25a3,3,0,0,0,3-3h2A5.006,5.006,0,0,1,25,48Z"/><path d="M23,35H21a1,1,0,0,1-1-1V30a1,1,0,0,1,1-1h2v2H22v2h1Z"/><path d="M17,35H13a1,1,0,0,1-1-1V30a1,1,0,0,1,1-1h4a1,1,0,0,1,1,1v4A1,1,0,0,1,17,35Zm-3-2h2V31H14Z"/><path d="M9,35H5a1,1,0,0,1-1-1V30a1,1,0,0,1,1-1H9a1,1,0,0,1,1,1v4A1,1,0,0,1,9,35ZM6,33H8V31H6Z"/><path d="M24,43H21a1,1,0,0,1-1-1V38a1,1,0,0,1,1-1h2v2H22v2h2Z"/><path d="M17,43H13a1,1,0,0,1-1-1V38a1,1,0,0,1,1-1h4a1,1,0,0,1,1,1v4A1,1,0,0,1,17,43Zm-3-2h2V39H14Z"/><path d="M9,43H5a1,1,0,0,1-1-1V38a1,1,0,0,1,1-1H9a1,1,0,0,1,1,1v4A1,1,0,0,1,9,43ZM6,41H8V39H6Z"/><rect x="1" y="24" width="25" height="2"/><rect x="24" y="20" width="2" height="2"/><rect x="16" y="20" width="6" height="2"/><path d="M31,6H11a1,1,0,0,1-1-1V4A2,2,0,0,0,6,4H4a4,4,0,0,1,8,0H30a2,2,0,0,0-2-2V0a4,4,0,0,1,4,4V5A1,1,0,0,1,31,6Z"/><rect x="24" y="5" width="2" height="12"/><rect x="4" y="4" width="2" height="13"/><rect x="8" width="20" height="2"/><rect x="9" y="8" width="8" height="2"/><rect x="9" y="12" width="12" height="2"/><rect x="19" y="8" width="2" height="2"/><path d="M35,36H33a3,3,0,0,1,0-6h2a3,3,0,0,1,3,3H36a1,1,0,0,0-1-1H33a1,1,0,0,0,0,2h2Z"/><path d="M35,40H33a3,3,0,0,1-3-3h2a1,1,0,0,0,1,1h2a1,1,0,0,0,0-2H33V34h2a3,3,0,0,1,0,6Z"/><rect x="33" y="29" width="2" height="2"/><rect x="33" y="39" width="2" height="2"/><path d="M34,45a10,10,0,0,1,0-20V14H31a1,1,0,0,1-.707-1.707l8-8a1,1,0,0,1,1.414,0l8,8A1,1,0,0,1,47,14H44V35A10.011,10.011,0,0,1,34,45Zm0-18a8,8,0,1,0,8,8V13a1,1,0,0,1,1-1h1.586L39,6.414,33.414,12H35a1,1,0,0,1,1,1V26a1,1,0,0,1-1,1Z"/><rect x="38" y="12" width="2" height="15"/></g></svg>