<svg id="artwork" xmlns="http://www.w3.org/2000/svg" width="64" height="64" viewBox="0 0 64 64"><title>percentage</title><path d="M61,44.3A31.313,31.313,0,0,0,63.5,32c0-.5-.014-1-.038-1.5h-3c.026.5.04,1,.04,1.5a28.373,28.373,0,0,1-1.715,9.74l-26.2-11.121,0,0L6.393,19.5A28.583,28.583,0,0,1,27.5,3.859V.827A31.5,31.5,0,1,0,60.99,44.318l.006-.01ZM30.5,60.46a28.387,28.387,0,0,1-17.553-7.286L30.5,35.621ZM5.22,22.262l24.147,10.25L10.826,51.053A28.435,28.435,0,0,1,5.22,22.262ZM33.5,60.46V34.266L57.607,44.5A28.546,28.546,0,0,1,33.5,60.46Z"/><path d="M61,.5H33A2.5,2.5,0,0,0,30.5,3V25A2.5,2.5,0,0,0,33,27.5H45.5V32a1.5,1.5,0,0,0,2.561,1.061l5.56-5.561H61A2.5,2.5,0,0,0,63.5,25V3A2.5,2.5,0,0,0,61,.5Zm-21.5,15h7.349a1.5,1.5,0,0,0,1.5-1.5V6.651A7.5,7.5,0,1,1,39.5,15.5Zm0-3a7.52,7.52,0,0,1,5.849-5.849V12.5Z" style="fill:#3e3ef4"/></svg>